<?xml version="1.0" standalone="no"?><!DOCTYPE svg PUBLIC "-//W3C//DTD SVG 1.1//EN" "http://www.w3.org/Graphics/SVG/1.1/DTD/svg11.dtd"><svg t="1673527348310" class="icon" viewBox="0 0 1025 1024" version="1.1" xmlns="http://www.w3.org/2000/svg" p-id="19685" xmlns:xlink="http://www.w3.org/1999/xlink" width="128.125" height="128"><path d="M960.16 97.472c0-27.104-21.504-49.056-48-49.056L48 48.416c-26.528 0-48 21.984-48 49.056L0 208l960 0L960.16 97.472zM816.064 559.68c-114.944 0-208.128 93.312-208.128 208.384 0 115.072 93.184 208.384 208.128 208.384 114.944 0 208.128-93.312 208.128-208.384C1024.192 652.992 931.008 559.68 816.064 559.68zM904 816l-80 0c-13.248 0-24-10.752-24-24l0-112c0-13.248 10.752-24 24-24 13.248 0 24 10.752 24 24L848 768l56 0c13.248 0 24 10.752 24 24C928 805.248 917.248 816 904 816zM816 496c52.992 0 102.272 15.392 144.096 41.6l-0.096-201.6-960 0 0 399.36c0 27.104 21.504 49.056 48 49.056l496.832 0c-0.32-5.472-0.832-10.88-0.832-16.416C544 617.792 665.76 496 816 496zM384.032 687.168l-288 0c0 0-0.16 4.256-0.064-6.016-0.064-34.208 12.48-32.576 53.12-51.392 13.856-6.4 57.632-25.28 57.632-25.28s2.208-9.6 0-16.832c-10.336-5.792-20.864-31.488-22.176-42.112-9.6-4.224-12.448-22.08-13.312-25.28-0.8-2.944 0.864-11.52 7.296-12-1.856-5.536-2.88-11.392-2.88-17.472 0-1.408 0.128-2.816 0.224-4.224-0.096-1.408-0.224-2.784-0.224-4.224 0-32.576 28.768-50.528 64.288-50.528 35.488 0 64.288 17.984 64.288 50.528 0 1.408-0.128 2.816-0.224 4.224 0.096 1.408 0.224 2.784 0.224 4.224 0 6.08-0.992 11.968-2.88 17.472 6.464 0.48 8.096 9.056 7.296 12-0.832 3.2-3.712 21.056-13.312 25.28-1.312 10.624-11.84 36.32-22.176 42.112-2.72 7.872 0 16.832 0 16.832s43.776 18.848 57.632 25.28c40.64 18.816 53.184 17.152 53.12 51.392C384.032 684.928 384.032 686.4 384.032 687.168L384.032 687.168C384.064 687.168 384.064 688.512 384.032 687.168z" p-id="19686" fill="#ffffff"></path></svg>