<?xml version="1.0" standalone="no"?><!DOCTYPE svg PUBLIC "-//W3C//DTD SVG 1.1//EN" "http://www.w3.org/Graphics/SVG/1.1/DTD/svg11.dtd"><svg t="1673527197694" class="icon" viewBox="0 0 1024 1024" version="1.1" xmlns="http://www.w3.org/2000/svg" p-id="13543" xmlns:xlink="http://www.w3.org/1999/xlink" width="128" height="128"><path d="M1024.252 0l-209.92 23.04 69.12 69.12-227.84 278.528-236.544-218.624c-15.872-14.848-40.96-14.848-57.344-0.512L14.076 465.408c-17.408 15.872-18.944 43.008-3.072 60.416 8.192 9.216 19.968 13.824 31.744 13.824 10.24 0 20.48-3.584 28.672-10.752l318.464-287.744 241.152 222.72c8.704 8.192 20.48 11.776 31.744 11.264 11.776-1.024 22.528-6.656 30.208-15.36l250.88-306.688 57.344 57.344L1024.252 0z m-890.88 1024h-102.4c-16.896 0-30.72-13.824-30.72-30.72V645.12c0-16.896 13.824-30.72 30.72-30.72h102.4c16.896 0 30.72 13.824 30.72 30.72v348.16c0 16.896-13.824 30.72-30.72 30.72z" p-id="13544" fill="#ffffff"></path><path d="M420.092 1024h-102.4c-16.896 0-30.72-13.824-30.72-30.72V440.32c0-16.896 13.824-30.72 30.72-30.72h102.4c16.896 0 30.72 13.824 30.72 30.72v552.96c0 16.896-13.824 30.72-30.72 30.72z m286.72 0h-102.4c-16.896 0-30.72-13.824-30.72-30.72V593.92c0-16.896 13.824-30.72 30.72-30.72h102.4c16.896 0 30.72 13.824 30.72 30.72v399.36c0 16.896-13.824 30.72-30.72 30.72z m286.72 0h-102.4c-16.896 0-30.72-13.824-30.72-30.72V337.92c0-16.896 13.824-30.72 30.72-30.72h102.4c16.896 0 30.72 13.824 30.72 30.72v655.36c0 16.896-13.824 30.72-30.72 30.72z" p-id="13545" fill="#ffffff"></path></svg>